<svg width="85" height="30" viewBox="0 0 282 109" fill="none" xmlns="http://www.w3.org/2000/svg">
<mask id="path-1-outside-1_2_15" maskUnits="userSpaceOnUse" x="0" y="-0.10202" width="282" height="110" fill="black">
<rect fill="white" y="-0.10202" width="282" height="110"/>
<path fill-rule="evenodd" clip-rule="evenodd" d="M64.8637 15.5058C62.7298 16.0775 61.4635 18.2709 62.0353 20.4047V20.4047C62.4201 21.841 60.9863 23.1258 59.5626 22.6966C55.9021 21.5931 52.0203 21 48 21C25.9086 21 8 38.9086 8 61C8 83.0914 25.9086 101 48 101C57.1974 101 65.6697 97.8959 72.4265 92.6781C75.6899 90.158 81.0394 91.3293 82.1066 95.3119L82.5473 96.9567C83.1191 99.0905 85.3124 100.357 87.4463 99.7851L111.594 93.3146C113.728 92.7429 114.995 90.5495 114.423 88.4156L93.9108 11.8637C93.3391 9.72984 91.1457 8.46351 89.0118 9.03528L64.8637 15.5058ZM165 81C165 92.0457 156.046 101 145 101C133.954 101 125 92.0457 125 81C125 69.9543 133.954 61 145 61C156.046 61 165 69.9543 165 81ZM248.314 15.4301C250.267 13.4775 253.433 13.4775 255.386 15.4301L271.649 31.6935C273.602 33.6462 273.602 36.812 271.649 38.7646L232.758 77.6556C232.758 77.656 232.757 77.656 232.756 77.6556V77.6556C232.756 77.6551 232.755 77.6551 232.755 77.6556L213.073 97.3369C211.121 99.2895 207.955 99.2895 206.002 97.3369L166.536 57.8701C164.583 55.9175 164.583 52.7516 166.536 50.799L182.799 34.5356C184.752 32.5829 187.917 32.5829 189.87 34.5356L206.004 50.6695C207.957 52.6221 211.122 52.6221 213.075 50.6695L248.314 15.4301Z"/>
</mask>
<path d="M64.8637 15.5058L66.9343 23.2332L66.9343 23.2332L64.8637 15.5058ZM82.5473 96.9567L74.8199 99.0272L74.8199 99.0272L82.5473 96.9567ZM87.4463 99.7851L85.3757 92.0577L85.3757 92.0577L87.4463 99.7851ZM111.594 93.3146L113.665 101.042L113.665 101.042L111.594 93.3146ZM114.423 88.4156L122.15 86.3451L122.15 86.3451L114.423 88.4156ZM93.9108 11.8637L86.1834 13.9342L86.1834 13.9343L93.9108 11.8637ZM89.0118 9.03528L86.9413 1.30787L86.9413 1.30787L89.0118 9.03528ZM182.799 34.5356L177.142 28.8787L182.799 34.5356ZM189.87 34.5356L184.213 40.1924L189.87 34.5356ZM166.536 57.8701L160.879 63.5269L166.536 57.8701ZM166.536 50.799L172.192 56.4559L166.536 50.799ZM213.073 97.3369L207.417 91.68L213.073 97.3369ZM206.002 97.3369L211.659 91.68L206.002 97.3369ZM232.755 77.6556L227.098 71.9987L232.755 77.6556ZM232.758 77.6556L227.101 71.9987L232.758 77.6556ZM255.386 15.4301L249.729 21.0869L255.386 15.4301ZM248.314 15.4301L253.971 21.0869L248.314 15.4301ZM72.4265 92.6781L67.5369 86.3463L72.4265 92.6781ZM82.1066 95.3119L74.3792 97.3825L82.1066 95.3119ZM271.649 31.6935L265.992 37.3504L271.649 31.6935ZM271.649 38.7646L277.306 44.4215L271.649 38.7646ZM206.004 50.6695L211.661 45.0126L206.004 50.6695ZM213.075 50.6695L207.418 45.0126L213.075 50.6695ZM59.5626 22.6966L57.2536 30.3561L59.5626 22.6966ZM69.7627 18.3342C70.3345 20.4681 69.0681 22.6614 66.9343 23.2332L62.7932 7.77835C56.3916 9.49364 52.5926 16.0737 54.3079 22.4753L69.7627 18.3342ZM48 29C51.2297 29 54.3338 29.476 57.2536 30.3561L61.8716 15.0371C57.4704 13.7103 52.8109 13 48 13V29ZM16 61C16 43.3269 30.3269 29 48 29V13C21.4903 13 0 34.4903 0 61H16ZM48 93C30.3269 93 16 78.6731 16 61H0C0 87.5097 21.4903 109 48 109V93ZM67.5369 86.3463C62.1313 90.5206 55.3665 93 48 93V109C59.0282 109 69.2081 105.271 77.3161 99.0099L67.5369 86.3463ZM90.2747 94.8861L89.834 93.2414L74.3792 97.3825L74.8199 99.0272L90.2747 94.8861ZM85.3757 92.0577C87.5096 91.4859 89.7029 92.7523 90.2747 94.8861L74.8199 99.0272C76.5352 105.429 83.1152 109.228 89.5168 107.513L85.3757 92.0577ZM109.524 85.5872L85.3757 92.0577L89.5168 107.513L113.665 101.042L109.524 85.5872ZM106.695 90.4862C106.124 88.3523 107.39 86.159 109.524 85.5872L113.665 101.042C120.067 99.3267 123.866 92.7467 122.15 86.3451L106.695 90.4862ZM86.1834 13.9343L106.695 90.4862L122.15 86.3451L101.638 9.79315L86.1834 13.9343ZM91.0824 16.7627C88.9486 17.3344 86.7552 16.0681 86.1834 13.9342L101.638 9.79317C99.9229 3.39155 93.3429 -0.407429 86.9413 1.30787L91.0824 16.7627ZM66.9343 23.2332L91.0824 16.7627L86.9413 1.30787L62.7932 7.77835L66.9343 23.2332ZM145 109C160.464 109 173 96.464 173 81H157C157 87.6274 151.627 93 145 93V109ZM117 81C117 96.464 129.536 109 145 109V93C138.373 93 133 87.6274 133 81H117ZM145 53C129.536 53 117 65.536 117 81H133C133 74.3726 138.373 69 145 69V53ZM173 81C173 65.536 160.464 53 145 53V69C151.627 69 157 74.3726 157 81H173ZM277.306 26.0367L261.042 9.77322L249.729 21.0869L265.992 37.3504L277.306 26.0367ZM238.415 83.3124L277.306 44.4215L265.992 33.1077L227.101 71.9987L238.415 83.3124ZM227.098 71.9987L207.417 91.68L218.73 102.994L238.412 83.3124L227.098 71.9987ZM211.659 91.68L172.192 52.2132L160.879 63.5269L200.345 102.994L211.659 91.68ZM172.192 56.4559L188.456 40.1924L177.142 28.8787L160.879 45.1422L172.192 56.4559ZM184.213 40.1924L200.347 56.3263L211.661 45.0126L195.527 28.8787L184.213 40.1924ZM242.658 9.77323L207.418 45.0126L218.732 56.3263L253.971 21.0869L242.658 9.77323ZM188.456 40.1924C187.284 41.364 185.385 41.364 184.213 40.1924L195.527 28.8787C190.45 23.8019 182.219 23.8019 177.142 28.8787L188.456 40.1924ZM172.192 52.2132C173.364 53.3848 173.364 55.2843 172.192 56.4559L160.879 45.1422C155.802 50.219 155.802 58.4501 160.879 63.5269L172.192 52.2132ZM207.417 91.68C208.588 90.5084 210.488 90.5084 211.659 91.68L200.345 102.994C205.422 108.071 213.653 108.071 218.73 102.994L207.417 91.68ZM238.413 71.9987C235.289 68.874 230.222 68.874 227.098 71.9987L238.412 83.3124C235.288 86.4361 230.223 86.4361 227.1 83.3124L238.413 71.9987ZM227.101 71.9987C230.225 68.875 235.289 68.875 238.413 71.9987L227.1 83.3124C230.224 86.4371 235.29 86.4371 238.415 83.3124L227.101 71.9987ZM261.042 9.77322C255.966 4.6964 247.734 4.69641 242.658 9.77323L253.971 21.0869C252.8 22.2585 250.9 22.2585 249.729 21.0869L261.042 9.77322ZM77.3161 99.0099C76.8166 99.3956 76.3914 99.3788 76.1267 99.3118C75.9439 99.2655 75.6188 99.1422 75.2596 98.8199C74.8691 98.4694 74.5347 97.9628 74.3792 97.3825L89.834 93.2414C88.4058 87.9112 84.1542 84.8393 80.0536 83.8012C76.0315 82.7829 71.2998 83.4405 67.5369 86.3463L77.3161 99.0099ZM265.992 37.3504C264.821 36.1788 264.821 34.2793 265.992 33.1077L277.306 44.4215C282.383 39.3446 282.383 31.1135 277.306 26.0367L265.992 37.3504ZM200.347 56.3263C205.424 61.4032 213.655 61.4032 218.732 56.3263L207.418 45.0126C208.59 43.8411 210.489 43.8411 211.661 45.0126L200.347 56.3263ZM54.3079 22.4753C53.6327 19.9553 54.6472 17.6569 56.0748 16.3498C57.4659 15.0761 59.6314 14.3617 61.8716 15.0371L57.2536 30.3561C64.0756 32.4127 71.9308 26.4256 69.7627 18.3342L54.3079 22.4753Z" fill="white" mask="url(#path-1-outside-1_2_15)"/>
</svg>
